<mxfile host="app.diagrams.net" modified="2023-02-13T02:27:22.439Z" agent="5.0 (Macintosh; Intel Mac OS X 10_15_7) AppleWebKit/537.36 (KHTML, like Gecko) Chrome/109.0.0.0 Safari/537.36" etag="9geh9TlZ_TLDZr89EvDF" version="20.8.17" type="github" pages="3">
  <diagram id="YkrAd5rtVJXaifrST15c" name="第 1 页">
    <mxGraphModel dx="954" dy="561" grid="0" gridSize="10" guides="1" tooltips="1" connect="1" arrows="1" fold="1" page="0" pageScale="1" pageWidth="827" pageHeight="1169" math="0" shadow="0">
      <root>
        <mxCell id="0" />
        <mxCell id="1" parent="0" />
        <mxCell id="SZW7YwkHF-WO_J5Xm0PH-10" value="" style="edgeStyle=orthogonalEdgeStyle;rounded=0;orthogonalLoop=1;jettySize=auto;html=1;" parent="1" source="SZW7YwkHF-WO_J5Xm0PH-1" target="SZW7YwkHF-WO_J5Xm0PH-9" edge="1">
          <mxGeometry relative="1" as="geometry" />
        </mxCell>
        <mxCell id="SZW7YwkHF-WO_J5Xm0PH-1" value="报文解析" style="rounded=1;whiteSpace=wrap;html=1;" parent="1" vertex="1">
          <mxGeometry x="340" y="94" width="120" height="60" as="geometry" />
        </mxCell>
        <mxCell id="SZW7YwkHF-WO_J5Xm0PH-12" value="" style="edgeStyle=orthogonalEdgeStyle;rounded=0;orthogonalLoop=1;jettySize=auto;html=1;" parent="1" source="SZW7YwkHF-WO_J5Xm0PH-9" target="SZW7YwkHF-WO_J5Xm0PH-11" edge="1">
          <mxGeometry relative="1" as="geometry" />
        </mxCell>
        <mxCell id="SZW7YwkHF-WO_J5Xm0PH-9" value="全局配置" style="rounded=0;whiteSpace=wrap;html=1;" parent="1" vertex="1">
          <mxGeometry x="340" y="192" width="120" height="60" as="geometry" />
        </mxCell>
        <mxCell id="SZW7YwkHF-WO_J5Xm0PH-14" value="" style="edgeStyle=orthogonalEdgeStyle;rounded=0;orthogonalLoop=1;jettySize=auto;html=1;startArrow=none;" parent="1" source="SZW7YwkHF-WO_J5Xm0PH-23" target="SZW7YwkHF-WO_J5Xm0PH-13" edge="1">
          <mxGeometry relative="1" as="geometry" />
        </mxCell>
        <mxCell id="SZW7YwkHF-WO_J5Xm0PH-16" value="" style="edgeStyle=orthogonalEdgeStyle;rounded=0;orthogonalLoop=1;jettySize=auto;html=1;startArrow=none;" parent="1" target="SZW7YwkHF-WO_J5Xm0PH-15" edge="1">
          <mxGeometry relative="1" as="geometry">
            <mxPoint x="400" y="422" as="sourcePoint" />
          </mxGeometry>
        </mxCell>
        <mxCell id="SZW7YwkHF-WO_J5Xm0PH-11" value="overlay？" style="rhombus;whiteSpace=wrap;html=1;rounded=0;" parent="1" vertex="1">
          <mxGeometry x="360" y="291" width="80" height="80" as="geometry" />
        </mxCell>
        <mxCell id="SZW7YwkHF-WO_J5Xm0PH-13" value="控制报文处理" style="whiteSpace=wrap;html=1;rounded=0;" parent="1" vertex="1">
          <mxGeometry x="508" y="301" width="120" height="60" as="geometry" />
        </mxCell>
        <mxCell id="SZW7YwkHF-WO_J5Xm0PH-20" value="" style="edgeStyle=orthogonalEdgeStyle;rounded=0;orthogonalLoop=1;jettySize=auto;html=1;" parent="1" source="SZW7YwkHF-WO_J5Xm0PH-15" target="SZW7YwkHF-WO_J5Xm0PH-19" edge="1">
          <mxGeometry relative="1" as="geometry" />
        </mxCell>
        <mxCell id="SZW7YwkHF-WO_J5Xm0PH-33" value="" style="edgeStyle=orthogonalEdgeStyle;rounded=0;orthogonalLoop=1;jettySize=auto;html=1;" parent="1" source="SZW7YwkHF-WO_J5Xm0PH-15" target="SZW7YwkHF-WO_J5Xm0PH-32" edge="1">
          <mxGeometry relative="1" as="geometry" />
        </mxCell>
        <mxCell id="SZW7YwkHF-WO_J5Xm0PH-15" value="vpn_in_ugn" style="whiteSpace=wrap;html=1;rounded=0;" parent="1" vertex="1">
          <mxGeometry x="340" y="438" width="120" height="60" as="geometry" />
        </mxCell>
        <mxCell id="SZW7YwkHF-WO_J5Xm0PH-17" value="vpc_route" style="whiteSpace=wrap;html=1;rounded=0;" parent="1" vertex="1">
          <mxGeometry x="567" y="547" width="120" height="60" as="geometry" />
        </mxCell>
        <mxCell id="SZW7YwkHF-WO_J5Xm0PH-29" value="" style="edgeStyle=orthogonalEdgeStyle;rounded=0;orthogonalLoop=1;jettySize=auto;html=1;" parent="1" source="SZW7YwkHF-WO_J5Xm0PH-19" target="SZW7YwkHF-WO_J5Xm0PH-28" edge="1">
          <mxGeometry relative="1" as="geometry" />
        </mxCell>
        <mxCell id="SZW7YwkHF-WO_J5Xm0PH-38" value="" style="edgeStyle=orthogonalEdgeStyle;rounded=0;orthogonalLoop=1;jettySize=auto;html=1;entryX=0;entryY=0.75;entryDx=0;entryDy=0;" parent="1" source="SZW7YwkHF-WO_J5Xm0PH-19" target="SZW7YwkHF-WO_J5Xm0PH-32" edge="1">
          <mxGeometry relative="1" as="geometry" />
        </mxCell>
        <mxCell id="SZW7YwkHF-WO_J5Xm0PH-19" value="ugn_route" style="whiteSpace=wrap;html=1;rounded=0;" parent="1" vertex="1">
          <mxGeometry x="340" y="547" width="120" height="60" as="geometry" />
        </mxCell>
        <mxCell id="SZW7YwkHF-WO_J5Xm0PH-26" value="" style="edgeStyle=orthogonalEdgeStyle;rounded=0;orthogonalLoop=1;jettySize=auto;html=1;exitX=0.5;exitY=1;exitDx=0;exitDy=0;" parent="1" source="SZW7YwkHF-WO_J5Xm0PH-11" target="SZW7YwkHF-WO_J5Xm0PH-15" edge="1">
          <mxGeometry relative="1" as="geometry">
            <mxPoint x="400" y="422" as="sourcePoint" />
          </mxGeometry>
        </mxCell>
        <mxCell id="SZW7YwkHF-WO_J5Xm0PH-21" value="yes" style="text;html=1;align=center;verticalAlign=middle;resizable=0;points=[];autosize=1;fillColor=#FFFFFF;" parent="1" vertex="1">
          <mxGeometry x="381.5" y="391" width="37" height="26" as="geometry" />
        </mxCell>
        <mxCell id="SZW7YwkHF-WO_J5Xm0PH-23" value="no" style="text;html=1;align=center;verticalAlign=middle;resizable=0;points=[];autosize=1;strokeColor=none;fillColor=#FFFFFF;" parent="1" vertex="1">
          <mxGeometry x="451" y="317" width="31" height="26" as="geometry" />
        </mxCell>
        <mxCell id="SZW7YwkHF-WO_J5Xm0PH-24" value="" style="edgeStyle=orthogonalEdgeStyle;rounded=0;orthogonalLoop=1;jettySize=auto;html=1;endArrow=none;" parent="1" source="SZW7YwkHF-WO_J5Xm0PH-11" target="SZW7YwkHF-WO_J5Xm0PH-23" edge="1">
          <mxGeometry relative="1" as="geometry">
            <mxPoint x="440" y="331" as="sourcePoint" />
            <mxPoint x="500" y="331" as="targetPoint" />
          </mxGeometry>
        </mxCell>
        <mxCell id="SZW7YwkHF-WO_J5Xm0PH-25" value="on_miss" style="text;html=1;align=center;verticalAlign=middle;resizable=0;points=[];autosize=1;strokeColor=none;fillColor=default;" parent="1" vertex="1">
          <mxGeometry x="485" y="454" width="63" height="26" as="geometry" />
        </mxCell>
        <mxCell id="SZW7YwkHF-WO_J5Xm0PH-27" value="on_hit" style="text;html=1;align=center;verticalAlign=middle;resizable=0;points=[];autosize=1;strokeColor=none;fillColor=default;" parent="1" vertex="1">
          <mxGeometry x="376" y="507" width="51" height="26" as="geometry" />
        </mxCell>
        <mxCell id="SZW7YwkHF-WO_J5Xm0PH-44" value="" style="edgeStyle=orthogonalEdgeStyle;rounded=0;orthogonalLoop=1;jettySize=auto;html=1;entryX=0.5;entryY=0;entryDx=0;entryDy=0;" parent="1" source="SZW7YwkHF-WO_J5Xm0PH-28" target="SZW7YwkHF-WO_J5Xm0PH-45" edge="1">
          <mxGeometry relative="1" as="geometry">
            <mxPoint x="400" y="799" as="targetPoint" />
          </mxGeometry>
        </mxCell>
        <mxCell id="SZW7YwkHF-WO_J5Xm0PH-28" value="set_bridge" style="whiteSpace=wrap;html=1;rounded=0;" parent="1" vertex="1">
          <mxGeometry x="340" y="656" width="120" height="60" as="geometry" />
        </mxCell>
        <mxCell id="SZW7YwkHF-WO_J5Xm0PH-36" value="" style="edgeStyle=orthogonalEdgeStyle;rounded=0;orthogonalLoop=1;jettySize=auto;html=1;" parent="1" source="SZW7YwkHF-WO_J5Xm0PH-32" target="SZW7YwkHF-WO_J5Xm0PH-17" edge="1">
          <mxGeometry relative="1" as="geometry" />
        </mxCell>
        <mxCell id="SZW7YwkHF-WO_J5Xm0PH-32" value="psg_route" style="whiteSpace=wrap;html=1;rounded=0;" parent="1" vertex="1">
          <mxGeometry x="567" y="438" width="120" height="60" as="geometry" />
        </mxCell>
        <mxCell id="SZW7YwkHF-WO_J5Xm0PH-39" value="on_miss" style="text;html=1;align=center;verticalAlign=middle;resizable=0;points=[];autosize=1;strokeColor=none;fillColor=default;" parent="1" vertex="1">
          <mxGeometry x="600" y="507" width="63" height="26" as="geometry" />
        </mxCell>
        <mxCell id="SZW7YwkHF-WO_J5Xm0PH-40" value="on_miss" style="text;html=1;align=center;verticalAlign=middle;resizable=0;points=[];autosize=1;strokeColor=none;fillColor=default;" parent="1" vertex="1">
          <mxGeometry x="476" y="514" width="63" height="26" as="geometry" />
        </mxCell>
        <mxCell id="SZW7YwkHF-WO_J5Xm0PH-41" value="" style="endArrow=classic;html=1;rounded=0;entryX=1;entryY=0.5;entryDx=0;entryDy=0;" parent="1" target="SZW7YwkHF-WO_J5Xm0PH-28" edge="1">
          <mxGeometry width="50" height="50" relative="1" as="geometry">
            <mxPoint x="687" y="467" as="sourcePoint" />
            <mxPoint x="742" y="788" as="targetPoint" />
            <Array as="points">
              <mxPoint x="752" y="467" />
              <mxPoint x="752" y="686" />
            </Array>
          </mxGeometry>
        </mxCell>
        <mxCell id="SZW7YwkHF-WO_J5Xm0PH-42" value="" style="endArrow=none;html=1;rounded=0;entryX=0.5;entryY=1;entryDx=0;entryDy=0;" parent="1" target="SZW7YwkHF-WO_J5Xm0PH-17" edge="1">
          <mxGeometry width="50" height="50" relative="1" as="geometry">
            <mxPoint x="627" y="687" as="sourcePoint" />
            <mxPoint x="603" y="630" as="targetPoint" />
          </mxGeometry>
        </mxCell>
        <mxCell id="SZW7YwkHF-WO_J5Xm0PH-45" value="报文重组" style="rounded=1;whiteSpace=wrap;html=1;" parent="1" vertex="1">
          <mxGeometry x="340" y="769" width="120" height="60" as="geometry" />
        </mxCell>
        <mxCell id="SZW7YwkHF-WO_J5Xm0PH-49" value="" style="edgeStyle=orthogonalEdgeStyle;rounded=0;orthogonalLoop=1;jettySize=auto;html=1;" parent="1" source="SZW7YwkHF-WO_J5Xm0PH-47" target="SZW7YwkHF-WO_J5Xm0PH-48" edge="1">
          <mxGeometry relative="1" as="geometry" />
        </mxCell>
        <mxCell id="SZW7YwkHF-WO_J5Xm0PH-47" value="报文解析" style="rounded=1;whiteSpace=wrap;html=1;" parent="1" vertex="1">
          <mxGeometry x="1184" y="94" width="120" height="60" as="geometry" />
        </mxCell>
        <mxCell id="SZW7YwkHF-WO_J5Xm0PH-51" value="" style="edgeStyle=orthogonalEdgeStyle;rounded=0;orthogonalLoop=1;jettySize=auto;html=1;" parent="1" source="SZW7YwkHF-WO_J5Xm0PH-48" target="SZW7YwkHF-WO_J5Xm0PH-50" edge="1">
          <mxGeometry relative="1" as="geometry" />
        </mxCell>
        <mxCell id="SZW7YwkHF-WO_J5Xm0PH-48" value="datapath" style="rounded=0;whiteSpace=wrap;html=1;" parent="1" vertex="1">
          <mxGeometry x="1184" y="207" width="120" height="60" as="geometry" />
        </mxCell>
        <mxCell id="SZW7YwkHF-WO_J5Xm0PH-53" value="" style="edgeStyle=orthogonalEdgeStyle;rounded=0;orthogonalLoop=1;jettySize=auto;html=1;" parent="1" source="SZW7YwkHF-WO_J5Xm0PH-50" target="SZW7YwkHF-WO_J5Xm0PH-52" edge="1">
          <mxGeometry relative="1" as="geometry" />
        </mxCell>
        <mxCell id="SZW7YwkHF-WO_J5Xm0PH-50" value="对账报文处理" style="whiteSpace=wrap;html=1;rounded=0;" parent="1" vertex="1">
          <mxGeometry x="1184" y="316" width="120" height="60" as="geometry" />
        </mxCell>
        <mxCell id="SZW7YwkHF-WO_J5Xm0PH-55" value="" style="edgeStyle=orthogonalEdgeStyle;rounded=0;orthogonalLoop=1;jettySize=auto;html=1;" parent="1" source="SZW7YwkHF-WO_J5Xm0PH-52" target="SZW7YwkHF-WO_J5Xm0PH-54" edge="1">
          <mxGeometry relative="1" as="geometry" />
        </mxCell>
        <mxCell id="SZW7YwkHF-WO_J5Xm0PH-52" value="报文修改" style="whiteSpace=wrap;html=1;rounded=0;" parent="1" vertex="1">
          <mxGeometry x="1184" y="427" width="120" height="60" as="geometry" />
        </mxCell>
        <mxCell id="SZW7YwkHF-WO_J5Xm0PH-57" value="" style="edgeStyle=orthogonalEdgeStyle;rounded=0;orthogonalLoop=1;jettySize=auto;html=1;" parent="1" source="SZW7YwkHF-WO_J5Xm0PH-54" target="SZW7YwkHF-WO_J5Xm0PH-56" edge="1">
          <mxGeometry relative="1" as="geometry" />
        </mxCell>
        <mxCell id="SZW7YwkHF-WO_J5Xm0PH-54" value="报文镜像" style="whiteSpace=wrap;html=1;rounded=0;" parent="1" vertex="1">
          <mxGeometry x="1184" y="536" width="120" height="60" as="geometry" />
        </mxCell>
        <mxCell id="SZW7YwkHF-WO_J5Xm0PH-56" value="报文重组" style="rounded=1;whiteSpace=wrap;html=1;" parent="1" vertex="1">
          <mxGeometry x="1184" y="649" width="120" height="60" as="geometry" />
        </mxCell>
        <mxCell id="SZW7YwkHF-WO_J5Xm0PH-58" value="on_hit" style="text;html=1;align=center;verticalAlign=middle;resizable=0;points=[];autosize=1;strokeColor=none;fillColor=default;" parent="1" vertex="1">
          <mxGeometry x="730" y="555" width="51" height="26" as="geometry" />
        </mxCell>
      </root>
    </mxGraphModel>
  </diagram>
  <diagram id="9VQZwh6SRe_tLOIelkPv" name="第 2 页">
    <mxGraphModel dx="1754" dy="961" grid="0" gridSize="10" guides="1" tooltips="1" connect="1" arrows="1" fold="1" page="0" pageScale="1" pageWidth="827" pageHeight="1169" math="0" shadow="0">
      <root>
        <mxCell id="0" />
        <mxCell id="1" parent="0" />
        <mxCell id="sHnoWkG0jyI7Sbut7Dvj-4" value="" style="edgeStyle=orthogonalEdgeStyle;rounded=0;orthogonalLoop=1;jettySize=auto;html=1;startArrow=classic;startFill=1;" parent="1" edge="1">
          <mxGeometry relative="1" as="geometry">
            <mxPoint x="-306" y="170" as="sourcePoint" />
            <mxPoint x="-132" y="170" as="targetPoint" />
          </mxGeometry>
        </mxCell>
        <mxCell id="sHnoWkG0jyI7Sbut7Dvj-1" value="分光器" style="rounded=0;whiteSpace=wrap;html=1;fillColor=#FFFFFF;" parent="1" vertex="1">
          <mxGeometry x="-426" y="150" width="120" height="60" as="geometry" />
        </mxCell>
        <mxCell id="sHnoWkG0jyI7Sbut7Dvj-3" value="统计器" style="whiteSpace=wrap;html=1;fillColor=#FFFFFF;rounded=0;" parent="1" vertex="1">
          <mxGeometry x="-132" y="150" width="120" height="60" as="geometry" />
        </mxCell>
        <mxCell id="sHnoWkG0jyI7Sbut7Dvj-6" value="" style="endArrow=classic;html=1;rounded=0;entryX=0.5;entryY=0;entryDx=0;entryDy=0;" parent="1" target="sHnoWkG0jyI7Sbut7Dvj-1" edge="1">
          <mxGeometry width="50" height="50" relative="1" as="geometry">
            <mxPoint x="-366" y="27" as="sourcePoint" />
            <mxPoint x="-383" y="312" as="targetPoint" />
          </mxGeometry>
        </mxCell>
        <mxCell id="sHnoWkG0jyI7Sbut7Dvj-7" value="" style="endArrow=classic;html=1;rounded=0;entryX=0.5;entryY=0;entryDx=0;entryDy=0;" parent="1" edge="1">
          <mxGeometry width="50" height="50" relative="1" as="geometry">
            <mxPoint x="-366.5" y="210" as="sourcePoint" />
            <mxPoint x="-366.5" y="333" as="targetPoint" />
          </mxGeometry>
        </mxCell>
        <mxCell id="sHnoWkG0jyI7Sbut7Dvj-8" value="" style="edgeStyle=orthogonalEdgeStyle;rounded=0;orthogonalLoop=1;jettySize=auto;html=1;startArrow=classic;startFill=1;" parent="1" source="sHnoWkG0jyI7Sbut7Dvj-9" target="sHnoWkG0jyI7Sbut7Dvj-10" edge="1">
          <mxGeometry relative="1" as="geometry" />
        </mxCell>
        <mxCell id="sHnoWkG0jyI7Sbut7Dvj-9" value="分光器" style="rounded=0;whiteSpace=wrap;html=1;fillColor=#FFFFFF;" parent="1" vertex="1">
          <mxGeometry x="129" y="144" width="120" height="60" as="geometry" />
        </mxCell>
        <mxCell id="sHnoWkG0jyI7Sbut7Dvj-10" value="统计器" style="whiteSpace=wrap;html=1;fillColor=#FFFFFF;rounded=0;" parent="1" vertex="1">
          <mxGeometry x="329" y="144" width="120" height="60" as="geometry" />
        </mxCell>
        <mxCell id="sHnoWkG0jyI7Sbut7Dvj-11" value="" style="endArrow=none;html=1;rounded=0;entryX=0.5;entryY=0;entryDx=0;entryDy=0;startArrow=classic;startFill=1;endFill=0;" parent="1" target="sHnoWkG0jyI7Sbut7Dvj-9" edge="1">
          <mxGeometry width="50" height="50" relative="1" as="geometry">
            <mxPoint x="189" y="21" as="sourcePoint" />
            <mxPoint x="172" y="306" as="targetPoint" />
          </mxGeometry>
        </mxCell>
        <mxCell id="sHnoWkG0jyI7Sbut7Dvj-12" value="" style="endArrow=none;html=1;rounded=0;entryX=0.5;entryY=0;entryDx=0;entryDy=0;startArrow=classic;startFill=1;endFill=0;" parent="1" edge="1">
          <mxGeometry width="50" height="50" relative="1" as="geometry">
            <mxPoint x="188.5" y="204" as="sourcePoint" />
            <mxPoint x="188.5" y="327" as="targetPoint" />
          </mxGeometry>
        </mxCell>
        <mxCell id="sHnoWkG0jyI7Sbut7Dvj-13" value="源ip是EIP" style="text;html=1;align=center;verticalAlign=middle;resizable=0;points=[];autosize=1;strokeColor=none;fillColor=none;" parent="1" vertex="1">
          <mxGeometry x="187" y="291" width="71" height="26" as="geometry" />
        </mxCell>
        <mxCell id="sHnoWkG0jyI7Sbut7Dvj-14" value="目的ip是EIP" style="text;html=1;align=center;verticalAlign=middle;resizable=0;points=[];autosize=1;strokeColor=none;fillColor=none;" parent="1" vertex="1">
          <mxGeometry x="-369" y="33" width="83" height="26" as="geometry" />
        </mxCell>
        <mxCell id="sHnoWkG0jyI7Sbut7Dvj-15" value="1、运营商ip网段数量；&lt;br&gt;2、一个地域EIP数量；&lt;br&gt;3、为什么要统计packets和bytes" style="text;html=1;align=left;verticalAlign=middle;resizable=0;points=[];autosize=1;strokeColor=none;fillColor=none;" parent="1" vertex="1">
          <mxGeometry x="-219" y="-129" width="191" height="55" as="geometry" />
        </mxCell>
        <mxCell id="sHnoWkG0jyI7Sbut7Dvj-16" value="源ip确定运营商&lt;br&gt;目的ip统计" style="text;html=1;align=left;verticalAlign=middle;resizable=0;points=[];autosize=1;strokeColor=none;fillColor=none;" parent="1" vertex="1">
          <mxGeometry x="-134" y="91" width="99" height="41" as="geometry" />
        </mxCell>
        <mxCell id="sHnoWkG0jyI7Sbut7Dvj-17" value="目的ip确定运营商&lt;br&gt;源ip统计" style="text;html=1;align=left;verticalAlign=middle;resizable=0;points=[];autosize=1;strokeColor=none;fillColor=none;" parent="1" vertex="1">
          <mxGeometry x="332" y="91" width="111" height="41" as="geometry" />
        </mxCell>
        <mxCell id="sHnoWkG0jyI7Sbut7Dvj-19" value="dstip" style="text;html=1;align=center;verticalAlign=middle;resizable=0;points=[];autosize=1;strokeColor=none;fillColor=none;" parent="1" vertex="1">
          <mxGeometry x="151.5" y="435" width="43" height="26" as="geometry" />
        </mxCell>
        <mxCell id="sHnoWkG0jyI7Sbut7Dvj-26" value="" style="edgeStyle=orthogonalEdgeStyle;rounded=0;orthogonalLoop=1;jettySize=auto;html=1;startArrow=none;startFill=0;endArrow=classic;endFill=1;" parent="1" source="sHnoWkG0jyI7Sbut7Dvj-22" target="sHnoWkG0jyI7Sbut7Dvj-25" edge="1">
          <mxGeometry relative="1" as="geometry" />
        </mxCell>
        <mxCell id="sHnoWkG0jyI7Sbut7Dvj-22" value="dstip ——&amp;gt;dipId" style="rounded=0;whiteSpace=wrap;html=1;fillColor=#FFFFFF;" parent="1" vertex="1">
          <mxGeometry x="113" y="418" width="120" height="60" as="geometry" />
        </mxCell>
        <mxCell id="sHnoWkG0jyI7Sbut7Dvj-25" value="dipid + srcip" style="whiteSpace=wrap;html=1;fillColor=#FFFFFF;rounded=0;" parent="1" vertex="1">
          <mxGeometry x="313" y="418" width="120" height="60" as="geometry" />
        </mxCell>
        <mxCell id="sHnoWkG0jyI7Sbut7Dvj-27" value="dstip" style="text;html=1;align=center;verticalAlign=middle;resizable=0;points=[];autosize=1;strokeColor=none;fillColor=none;" parent="1" vertex="1">
          <mxGeometry x="-376.5" y="428" width="43" height="26" as="geometry" />
        </mxCell>
        <mxCell id="sHnoWkG0jyI7Sbut7Dvj-28" value="" style="edgeStyle=orthogonalEdgeStyle;rounded=0;orthogonalLoop=1;jettySize=auto;html=1;startArrow=none;startFill=0;endArrow=classic;endFill=1;" parent="1" source="sHnoWkG0jyI7Sbut7Dvj-29" target="sHnoWkG0jyI7Sbut7Dvj-30" edge="1">
          <mxGeometry relative="1" as="geometry" />
        </mxCell>
        <mxCell id="sHnoWkG0jyI7Sbut7Dvj-32" value="" style="edgeStyle=orthogonalEdgeStyle;rounded=0;orthogonalLoop=1;jettySize=auto;html=1;startArrow=classic;startFill=1;endArrow=none;endFill=0;" parent="1" source="sHnoWkG0jyI7Sbut7Dvj-29" target="sHnoWkG0jyI7Sbut7Dvj-31" edge="1">
          <mxGeometry relative="1" as="geometry" />
        </mxCell>
        <mxCell id="sHnoWkG0jyI7Sbut7Dvj-29" value="srcip ——&amp;gt;dipId" style="rounded=0;whiteSpace=wrap;html=1;fillColor=#FFFFFF;" parent="1" vertex="1">
          <mxGeometry x="-415" y="411" width="120" height="60" as="geometry" />
        </mxCell>
        <mxCell id="sHnoWkG0jyI7Sbut7Dvj-30" value="dipid + srcip" style="whiteSpace=wrap;html=1;fillColor=#FFFFFF;rounded=0;" parent="1" vertex="1">
          <mxGeometry x="-215" y="411" width="120" height="60" as="geometry" />
        </mxCell>
        <mxCell id="sHnoWkG0jyI7Sbut7Dvj-31" value="srcmac" style="whiteSpace=wrap;html=1;fillColor=#FFFFFF;rounded=0;" parent="1" vertex="1">
          <mxGeometry x="-615" y="411" width="120" height="60" as="geometry" />
        </mxCell>
      </root>
    </mxGraphModel>
  </diagram>
  <diagram id="9OEwtS-0OKGZogbyHBsM" name="第 3 页">
    <mxGraphModel dx="2074" dy="1163" grid="0" gridSize="10" guides="1" tooltips="1" connect="1" arrows="1" fold="1" page="0" pageScale="1" pageWidth="827" pageHeight="1169" math="0" shadow="0">
      <root>
        <mxCell id="0" />
        <mxCell id="1" parent="0" />
        <mxCell id="wmab7NJsKO89__1W53vT-3" value="" style="edgeStyle=orthogonalEdgeStyle;rounded=0;orthogonalLoop=1;jettySize=auto;html=1;endArrow=none;endFill=0;" edge="1" parent="1" source="wmab7NJsKO89__1W53vT-1" target="wmab7NJsKO89__1W53vT-2">
          <mxGeometry relative="1" as="geometry" />
        </mxCell>
        <mxCell id="wmab7NJsKO89__1W53vT-1" value="IPv6网络" style="ellipse;shape=cloud;whiteSpace=wrap;html=1;" vertex="1" parent="1">
          <mxGeometry x="9" y="167" width="120" height="80" as="geometry" />
        </mxCell>
        <mxCell id="wmab7NJsKO89__1W53vT-5" value="" style="edgeStyle=orthogonalEdgeStyle;rounded=0;orthogonalLoop=1;jettySize=auto;html=1;endArrow=none;endFill=0;" edge="1" parent="1" source="wmab7NJsKO89__1W53vT-2" target="wmab7NJsKO89__1W53vT-4">
          <mxGeometry relative="1" as="geometry" />
        </mxCell>
        <mxCell id="wmab7NJsKO89__1W53vT-8" value="" style="edgeStyle=orthogonalEdgeStyle;rounded=0;orthogonalLoop=1;jettySize=auto;html=1;endArrow=none;endFill=0;" edge="1" parent="1" source="wmab7NJsKO89__1W53vT-2" target="wmab7NJsKO89__1W53vT-7">
          <mxGeometry relative="1" as="geometry" />
        </mxCell>
        <mxCell id="wmab7NJsKO89__1W53vT-2" value="核心交换机" style="whiteSpace=wrap;html=1;" vertex="1" parent="1">
          <mxGeometry x="209" y="177" width="120" height="60" as="geometry" />
        </mxCell>
        <mxCell id="wmab7NJsKO89__1W53vT-4" value="DNS" style="whiteSpace=wrap;html=1;" vertex="1" parent="1">
          <mxGeometry x="209" y="37" width="120" height="60" as="geometry" />
        </mxCell>
        <mxCell id="wmab7NJsKO89__1W53vT-7" value="IPv6Router" style="whiteSpace=wrap;html=1;" vertex="1" parent="1">
          <mxGeometry x="409" y="177" width="120" height="60" as="geometry" />
        </mxCell>
        <mxCell id="wmab7NJsKO89__1W53vT-10" value="" style="edgeStyle=orthogonalEdgeStyle;rounded=0;orthogonalLoop=1;jettySize=auto;html=1;endArrow=none;endFill=0;" edge="1" parent="1" source="wmab7NJsKO89__1W53vT-9" target="wmab7NJsKO89__1W53vT-7">
          <mxGeometry relative="1" as="geometry" />
        </mxCell>
        <mxCell id="wmab7NJsKO89__1W53vT-9" value="IPv6 Internet" style="ellipse;shape=cloud;whiteSpace=wrap;html=1;" vertex="1" parent="1">
          <mxGeometry x="572" y="167" width="120" height="80" as="geometry" />
        </mxCell>
        <mxCell id="wmab7NJsKO89__1W53vT-11" value="" style="edgeStyle=orthogonalEdgeStyle;rounded=0;orthogonalLoop=1;jettySize=auto;html=1;endArrow=none;endFill=0;" edge="1" parent="1" source="wmab7NJsKO89__1W53vT-12" target="wmab7NJsKO89__1W53vT-15">
          <mxGeometry relative="1" as="geometry" />
        </mxCell>
        <mxCell id="wmab7NJsKO89__1W53vT-12" value="IPv6网络" style="ellipse;shape=cloud;whiteSpace=wrap;html=1;" vertex="1" parent="1">
          <mxGeometry x="9" y="589" width="120" height="80" as="geometry" />
        </mxCell>
        <mxCell id="wmab7NJsKO89__1W53vT-13" value="" style="edgeStyle=orthogonalEdgeStyle;rounded=0;orthogonalLoop=1;jettySize=auto;html=1;endArrow=none;endFill=0;" edge="1" parent="1" source="wmab7NJsKO89__1W53vT-15" target="wmab7NJsKO89__1W53vT-16">
          <mxGeometry relative="1" as="geometry" />
        </mxCell>
        <mxCell id="wmab7NJsKO89__1W53vT-14" value="" style="edgeStyle=orthogonalEdgeStyle;rounded=0;orthogonalLoop=1;jettySize=auto;html=1;endArrow=none;endFill=0;" edge="1" parent="1" source="wmab7NJsKO89__1W53vT-15" target="wmab7NJsKO89__1W53vT-17">
          <mxGeometry relative="1" as="geometry" />
        </mxCell>
        <mxCell id="wmab7NJsKO89__1W53vT-15" value="核心交换机" style="whiteSpace=wrap;html=1;" vertex="1" parent="1">
          <mxGeometry x="209" y="599" width="120" height="60" as="geometry" />
        </mxCell>
        <mxCell id="wmab7NJsKO89__1W53vT-16" value="DNS64" style="whiteSpace=wrap;html=1;" vertex="1" parent="1">
          <mxGeometry x="209" y="459" width="120" height="60" as="geometry" />
        </mxCell>
        <mxCell id="wmab7NJsKO89__1W53vT-17" value="IPv6Router" style="whiteSpace=wrap;html=1;" vertex="1" parent="1">
          <mxGeometry x="409" y="599" width="120" height="60" as="geometry" />
        </mxCell>
        <mxCell id="wmab7NJsKO89__1W53vT-18" value="" style="edgeStyle=orthogonalEdgeStyle;rounded=0;orthogonalLoop=1;jettySize=auto;html=1;endArrow=none;endFill=0;" edge="1" parent="1" source="wmab7NJsKO89__1W53vT-19" target="wmab7NJsKO89__1W53vT-17">
          <mxGeometry relative="1" as="geometry" />
        </mxCell>
        <mxCell id="wmab7NJsKO89__1W53vT-19" value="IPv6 Internet" style="ellipse;shape=cloud;whiteSpace=wrap;html=1;" vertex="1" parent="1">
          <mxGeometry x="572" y="589" width="120" height="80" as="geometry" />
        </mxCell>
        <mxCell id="wmab7NJsKO89__1W53vT-20" value="p4" style="whiteSpace=wrap;html=1;" vertex="1" parent="1">
          <mxGeometry x="169" y="739" width="66" height="32" as="geometry" />
        </mxCell>
        <mxCell id="wmab7NJsKO89__1W53vT-22" value="p4" style="whiteSpace=wrap;html=1;" vertex="1" parent="1">
          <mxGeometry x="290" y="738" width="70" height="32" as="geometry" />
        </mxCell>
        <mxCell id="wmab7NJsKO89__1W53vT-23" value="" style="endArrow=none;html=1;rounded=0;entryX=0.75;entryY=1;entryDx=0;entryDy=0;exitX=0.5;exitY=0;exitDx=0;exitDy=0;" edge="1" parent="1" source="wmab7NJsKO89__1W53vT-22" target="wmab7NJsKO89__1W53vT-15">
          <mxGeometry width="50" height="50" relative="1" as="geometry">
            <mxPoint x="342" y="719" as="sourcePoint" />
            <mxPoint x="392" y="669" as="targetPoint" />
            <Array as="points" />
          </mxGeometry>
        </mxCell>
        <mxCell id="wmab7NJsKO89__1W53vT-24" value="" style="endArrow=none;html=1;rounded=0;exitX=0.25;exitY=0;exitDx=0;exitDy=0;entryX=0;entryY=1;entryDx=0;entryDy=0;" edge="1" parent="1" source="wmab7NJsKO89__1W53vT-20" target="wmab7NJsKO89__1W53vT-15">
          <mxGeometry width="50" height="50" relative="1" as="geometry">
            <mxPoint x="387" y="586" as="sourcePoint" />
            <mxPoint x="437" y="536" as="targetPoint" />
          </mxGeometry>
        </mxCell>
        <mxCell id="wmab7NJsKO89__1W53vT-25" value="双栈交换机" style="rounded=0;whiteSpace=wrap;html=1;" vertex="1" parent="1">
          <mxGeometry x="207" y="829" width="120" height="60" as="geometry" />
        </mxCell>
        <mxCell id="wmab7NJsKO89__1W53vT-26" value="" style="endArrow=none;html=1;rounded=0;entryX=0.5;entryY=1;entryDx=0;entryDy=0;exitX=0.25;exitY=0;exitDx=0;exitDy=0;" edge="1" parent="1" source="wmab7NJsKO89__1W53vT-25" target="wmab7NJsKO89__1W53vT-20">
          <mxGeometry width="50" height="50" relative="1" as="geometry">
            <mxPoint x="387" y="746" as="sourcePoint" />
            <mxPoint x="437" y="696" as="targetPoint" />
          </mxGeometry>
        </mxCell>
        <mxCell id="wmab7NJsKO89__1W53vT-27" value="" style="endArrow=none;html=1;rounded=0;entryX=0.5;entryY=1;entryDx=0;entryDy=0;exitX=0.75;exitY=0;exitDx=0;exitDy=0;" edge="1" parent="1" source="wmab7NJsKO89__1W53vT-25" target="wmab7NJsKO89__1W53vT-22">
          <mxGeometry width="50" height="50" relative="1" as="geometry">
            <mxPoint x="247" y="839" as="sourcePoint" />
            <mxPoint x="212" y="781" as="targetPoint" />
          </mxGeometry>
        </mxCell>
        <mxCell id="wmab7NJsKO89__1W53vT-28" value="NAT64" style="rounded=0;whiteSpace=wrap;html=1;" vertex="1" parent="1">
          <mxGeometry x="112" y="947" width="84" height="31" as="geometry" />
        </mxCell>
        <mxCell id="wmab7NJsKO89__1W53vT-29" value="NAT64" style="rounded=0;whiteSpace=wrap;html=1;" vertex="1" parent="1">
          <mxGeometry x="226" y="947" width="84" height="31" as="geometry" />
        </mxCell>
        <mxCell id="wmab7NJsKO89__1W53vT-30" value="NAT64" style="rounded=0;whiteSpace=wrap;html=1;" vertex="1" parent="1">
          <mxGeometry x="340" y="945" width="84" height="31" as="geometry" />
        </mxCell>
        <mxCell id="wmab7NJsKO89__1W53vT-31" value="" style="endArrow=none;html=1;rounded=0;exitX=0.5;exitY=0;exitDx=0;exitDy=0;entryX=0;entryY=1;entryDx=0;entryDy=0;" edge="1" parent="1" source="wmab7NJsKO89__1W53vT-28" target="wmab7NJsKO89__1W53vT-25">
          <mxGeometry width="50" height="50" relative="1" as="geometry">
            <mxPoint x="387" y="806" as="sourcePoint" />
            <mxPoint x="437" y="756" as="targetPoint" />
          </mxGeometry>
        </mxCell>
        <mxCell id="wmab7NJsKO89__1W53vT-32" value="" style="endArrow=none;html=1;rounded=0;exitX=0.5;exitY=0;exitDx=0;exitDy=0;entryX=0.5;entryY=1;entryDx=0;entryDy=0;" edge="1" parent="1" source="wmab7NJsKO89__1W53vT-29" target="wmab7NJsKO89__1W53vT-25">
          <mxGeometry width="50" height="50" relative="1" as="geometry">
            <mxPoint x="181" y="957" as="sourcePoint" />
            <mxPoint x="247" y="899" as="targetPoint" />
          </mxGeometry>
        </mxCell>
        <mxCell id="wmab7NJsKO89__1W53vT-33" value="" style="endArrow=none;html=1;rounded=0;entryX=0.5;entryY=0;entryDx=0;entryDy=0;exitX=0.75;exitY=1;exitDx=0;exitDy=0;" edge="1" parent="1" source="wmab7NJsKO89__1W53vT-25" target="wmab7NJsKO89__1W53vT-30">
          <mxGeometry width="50" height="50" relative="1" as="geometry">
            <mxPoint x="387" y="806" as="sourcePoint" />
            <mxPoint x="437" y="756" as="targetPoint" />
          </mxGeometry>
        </mxCell>
        <mxCell id="wmab7NJsKO89__1W53vT-38" value="" style="edgeStyle=orthogonalEdgeStyle;rounded=0;orthogonalLoop=1;jettySize=auto;html=1;endArrow=none;endFill=0;" edge="1" parent="1" source="wmab7NJsKO89__1W53vT-34" target="wmab7NJsKO89__1W53vT-36">
          <mxGeometry relative="1" as="geometry" />
        </mxCell>
        <mxCell id="wmab7NJsKO89__1W53vT-34" value="IPv4 Internet" style="ellipse;shape=cloud;whiteSpace=wrap;html=1;" vertex="1" parent="1">
          <mxGeometry x="578" y="819" width="120" height="80" as="geometry" />
        </mxCell>
        <mxCell id="wmab7NJsKO89__1W53vT-36" value="IPv4Router" style="whiteSpace=wrap;html=1;rounded=0;" vertex="1" parent="1">
          <mxGeometry x="393" y="829" width="120" height="60" as="geometry" />
        </mxCell>
        <mxCell id="wmab7NJsKO89__1W53vT-37" value="" style="endArrow=none;html=1;rounded=0;exitX=1;exitY=0.5;exitDx=0;exitDy=0;entryX=0;entryY=0.5;entryDx=0;entryDy=0;" edge="1" parent="1" source="wmab7NJsKO89__1W53vT-25" target="wmab7NJsKO89__1W53vT-36">
          <mxGeometry width="50" height="50" relative="1" as="geometry">
            <mxPoint x="387" y="806" as="sourcePoint" />
            <mxPoint x="437" y="756" as="targetPoint" />
          </mxGeometry>
        </mxCell>
        <mxCell id="wmab7NJsKO89__1W53vT-39" value="bgp ecmp" style="text;html=1;align=center;verticalAlign=middle;resizable=0;points=[];autosize=1;strokeColor=none;fillColor=none;" vertex="1" parent="1">
          <mxGeometry x="112" y="678" width="71" height="26" as="geometry" />
        </mxCell>
        <mxCell id="wmab7NJsKO89__1W53vT-40" value="特定96位前缀ipv6网络" style="text;html=1;align=center;verticalAlign=middle;resizable=0;points=[];autosize=1;strokeColor=none;fillColor=none;" vertex="1" parent="1">
          <mxGeometry x="327" y="783" width="137" height="26" as="geometry" />
        </mxCell>
        <mxCell id="wmab7NJsKO89__1W53vT-41" value="" style="endArrow=none;html=1;rounded=0;exitX=0.25;exitY=0;exitDx=0;exitDy=0;entryX=0;entryY=0.75;entryDx=0;entryDy=0;" edge="1" parent="1" source="wmab7NJsKO89__1W53vT-28" target="wmab7NJsKO89__1W53vT-25">
          <mxGeometry width="50" height="50" relative="1" as="geometry">
            <mxPoint x="164" y="957" as="sourcePoint" />
            <mxPoint x="247" y="899" as="targetPoint" />
          </mxGeometry>
        </mxCell>
        <mxCell id="wmab7NJsKO89__1W53vT-42" value="" style="endArrow=none;html=1;rounded=0;exitX=0.25;exitY=0;exitDx=0;exitDy=0;entryX=0.25;entryY=1;entryDx=0;entryDy=0;" edge="1" parent="1" source="wmab7NJsKO89__1W53vT-29" target="wmab7NJsKO89__1W53vT-25">
          <mxGeometry width="50" height="50" relative="1" as="geometry">
            <mxPoint x="278" y="957" as="sourcePoint" />
            <mxPoint x="277" y="899" as="targetPoint" />
          </mxGeometry>
        </mxCell>
        <mxCell id="wmab7NJsKO89__1W53vT-43" value="" style="endArrow=none;html=1;rounded=0;entryX=0.75;entryY=0;entryDx=0;entryDy=0;exitX=1;exitY=1;exitDx=0;exitDy=0;" edge="1" parent="1" source="wmab7NJsKO89__1W53vT-25" target="wmab7NJsKO89__1W53vT-30">
          <mxGeometry width="50" height="50" relative="1" as="geometry">
            <mxPoint x="307" y="899" as="sourcePoint" />
            <mxPoint x="392" y="955" as="targetPoint" />
          </mxGeometry>
        </mxCell>
        <mxCell id="wmab7NJsKO89__1W53vT-44" value="" style="endArrow=none;html=1;rounded=0;exitX=0.75;exitY=0;exitDx=0;exitDy=0;entryX=0.25;entryY=1;entryDx=0;entryDy=0;" edge="1" parent="1" source="wmab7NJsKO89__1W53vT-20" target="wmab7NJsKO89__1W53vT-15">
          <mxGeometry width="50" height="50" relative="1" as="geometry">
            <mxPoint x="212" y="749" as="sourcePoint" />
            <mxPoint x="219" y="669" as="targetPoint" />
          </mxGeometry>
        </mxCell>
        <mxCell id="wmab7NJsKO89__1W53vT-45" value="" style="endArrow=none;html=1;rounded=0;entryX=1;entryY=1;entryDx=0;entryDy=0;exitX=1;exitY=0;exitDx=0;exitDy=0;" edge="1" parent="1" source="wmab7NJsKO89__1W53vT-22" target="wmab7NJsKO89__1W53vT-15">
          <mxGeometry width="50" height="50" relative="1" as="geometry">
            <mxPoint x="356" y="735" as="sourcePoint" />
            <mxPoint x="309" y="669" as="targetPoint" />
            <Array as="points" />
          </mxGeometry>
        </mxCell>
        <mxCell id="wmab7NJsKO89__1W53vT-46" value="vrf1" style="text;html=1;align=center;verticalAlign=middle;resizable=0;points=[];autosize=1;strokeColor=none;fillColor=none;" vertex="1" parent="1">
          <mxGeometry x="169" y="652" width="38" height="26" as="geometry" />
        </mxCell>
        <mxCell id="wmab7NJsKO89__1W53vT-47" value="vrf1" style="text;html=1;align=center;verticalAlign=middle;resizable=0;points=[];autosize=1;strokeColor=none;fillColor=none;" vertex="1" parent="1">
          <mxGeometry x="268" y="654" width="38" height="26" as="geometry" />
        </mxCell>
        <mxCell id="wmab7NJsKO89__1W53vT-48" value="vrf2" style="text;html=1;align=center;verticalAlign=middle;resizable=0;points=[];autosize=1;strokeColor=#6c8ebf;fillColor=none;fontColor=#FF0000;" vertex="1" parent="1">
          <mxGeometry x="231" y="658" width="38" height="26" as="geometry" />
        </mxCell>
        <mxCell id="wmab7NJsKO89__1W53vT-49" value="vrf2" style="text;html=1;align=center;verticalAlign=middle;resizable=0;points=[];autosize=1;strokeColor=none;fillColor=none;fontColor=#FF0000;" vertex="1" parent="1">
          <mxGeometry x="328" y="656" width="38" height="26" as="geometry" />
        </mxCell>
        <mxCell id="wmab7NJsKO89__1W53vT-50" value="vrf2" style="text;html=1;align=center;verticalAlign=middle;resizable=0;points=[];autosize=1;strokeColor=none;fillColor=none;fontColor=#FF0000;" vertex="1" parent="1">
          <mxGeometry x="327" y="603" width="38" height="26" as="geometry" />
        </mxCell>
      </root>
    </mxGraphModel>
  </diagram>
</mxfile>
